<svg xmlns="http://www.w3.org/2000/svg" width="1100" height="420" viewBox="0 0 1100 420">
<rect width="100%" height="100%" fill="#FAF8F5"/>
<marker id="arr-EF4444" viewBox="0 0 10 10" refX="9" refY="5" markerWidth="8" markerHeight="8" orient="auto-start-reverse"><path d="M 0 0 L 10 5 L 0 10 z" fill="#EF4444"/></marker>
<text x="550.00" y="36.00" fill="#1F2937" font-size="20" font-family="PingFang SC, Hiragino Sans GB, Helvetica Neue, sans-serif" font-weight="600" text-anchor="middle" dy="0">naive ijk：内层沿 B 的列往下跳</text>
<text x="440.00" y="72.00" fill="#1F2937" font-size="17" font-family="PingFang SC, Hiragino Sans GB, Helvetica Neue, sans-serif" font-weight="600" text-anchor="middle" dy="0"></text>
<rect x="80.00" y="98.00" width="18.00" height="18.00" fill="#BFDBFE" stroke="#3B82F6" stroke-width="0.8" rx="2" ry="2"/>
<rect x="101.00" y="98.00" width="18.00" height="18.00" fill="#BFDBFE" stroke="#3B82F6" stroke-width="0.8" rx="2" ry="2"/>
<rect x="122.00" y="98.00" width="18.00" height="18.00" fill="#BFDBFE" stroke="#3B82F6" stroke-width="0.8" rx="2" ry="2"/>
<rect x="143.00" y="98.00" width="18.00" height="18.00" fill="#BFDBFE" stroke="#3B82F6" stroke-width="0.8" rx="2" ry="2"/>
<rect x="164.00" y="98.00" width="18.00" height="18.00" fill="#BFDBFE" stroke="#3B82F6" stroke-width="0.8" rx="2" ry="2"/>
<rect x="185.00" y="98.00" width="18.00" height="18.00" fill="#BFDBFE" stroke="#3B82F6" stroke-width="0.8" rx="2" ry="2"/>
<rect x="206.00" y="98.00" width="18.00" height="18.00" fill="#BFDBFE" stroke="#3B82F6" stroke-width="0.8" rx="2" ry="2"/>
<rect x="227.00" y="98.00" width="18.00" height="18.00" fill="#BFDBFE" stroke="#3B82F6" stroke-width="0.8" rx="2" ry="2"/>
<rect x="80.00" y="119.00" width="18.00" height="18.00" fill="#BFDBFE" stroke="#3B82F6" stroke-width="0.8" rx="2" ry="2"/>
<rect x="101.00" y="119.00" width="18.00" height="18.00" fill="#BFDBFE" stroke="#3B82F6" stroke-width="0.8" rx="2" ry="2"/>
<rect x="122.00" y="119.00" width="18.00" height="18.00" fill="#BFDBFE" stroke="#3B82F6" stroke-width="0.8" rx="2" ry="2"/>
<rect x="143.00" y="119.00" width="18.00" height="18.00" fill="#BFDBFE" stroke="#3B82F6" stroke-width="0.8" rx="2" ry="2"/>
<rect x="164.00" y="119.00" width="18.00" height="18.00" fill="#BFDBFE" stroke="#3B82F6" stroke-width="0.8" rx="2" ry="2"/>
<rect x="185.00" y="119.00" width="18.00" height="18.00" fill="#BFDBFE" stroke="#3B82F6" stroke-width="0.8" rx="2" ry="2"/>
<rect x="206.00" y="119.00" width="18.00" height="18.00" fill="#BFDBFE" stroke="#3B82F6" stroke-width="0.8" rx="2" ry="2"/>
<rect x="227.00" y="119.00" width="18.00" height="18.00" fill="#BFDBFE" stroke="#3B82F6" stroke-width="0.8" rx="2" ry="2"/>
<rect x="80.00" y="140.00" width="18.00" height="18.00" fill="#3B82F6" stroke="#3B82F6" stroke-width="0.8" rx="2" ry="2"/>
<rect x="101.00" y="140.00" width="18.00" height="18.00" fill="#3B82F6" stroke="#3B82F6" stroke-width="0.8" rx="2" ry="2"/>
<rect x="122.00" y="140.00" width="18.00" height="18.00" fill="#3B82F6" stroke="#3B82F6" stroke-width="0.8" rx="2" ry="2"/>
<rect x="143.00" y="140.00" width="18.00" height="18.00" fill="#3B82F6" stroke="#3B82F6" stroke-width="0.8" rx="2" ry="2"/>
<rect x="164.00" y="140.00" width="18.00" height="18.00" fill="#3B82F6" stroke="#3B82F6" stroke-width="0.8" rx="2" ry="2"/>
<rect x="185.00" y="140.00" width="18.00" height="18.00" fill="#3B82F6" stroke="#3B82F6" stroke-width="0.8" rx="2" ry="2"/>
<rect x="206.00" y="140.00" width="18.00" height="18.00" fill="#3B82F6" stroke="#3B82F6" stroke-width="0.8" rx="2" ry="2"/>
<rect x="227.00" y="140.00" width="18.00" height="18.00" fill="#3B82F6" stroke="#3B82F6" stroke-width="0.8" rx="2" ry="2"/>
<rect x="80.00" y="161.00" width="18.00" height="18.00" fill="#BFDBFE" stroke="#3B82F6" stroke-width="0.8" rx="2" ry="2"/>
<rect x="101.00" y="161.00" width="18.00" height="18.00" fill="#BFDBFE" stroke="#3B82F6" stroke-width="0.8" rx="2" ry="2"/>
<rect x="122.00" y="161.00" width="18.00" height="18.00" fill="#BFDBFE" stroke="#3B82F6" stroke-width="0.8" rx="2" ry="2"/>
<rect x="143.00" y="161.00" width="18.00" height="18.00" fill="#BFDBFE" stroke="#3B82F6" stroke-width="0.8" rx="2" ry="2"/>
<rect x="164.00" y="161.00" width="18.00" height="18.00" fill="#BFDBFE" stroke="#3B82F6" stroke-width="0.8" rx="2" ry="2"/>
<rect x="185.00" y="161.00" width="18.00" height="18.00" fill="#BFDBFE" stroke="#3B82F6" stroke-width="0.8" rx="2" ry="2"/>
<rect x="206.00" y="161.00" width="18.00" height="18.00" fill="#BFDBFE" stroke="#3B82F6" stroke-width="0.8" rx="2" ry="2"/>
<rect x="227.00" y="161.00" width="18.00" height="18.00" fill="#BFDBFE" stroke="#3B82F6" stroke-width="0.8" rx="2" ry="2"/>
<rect x="80.00" y="182.00" width="18.00" height="18.00" fill="#BFDBFE" stroke="#3B82F6" stroke-width="0.8" rx="2" ry="2"/>
<rect x="101.00" y="182.00" width="18.00" height="18.00" fill="#BFDBFE" stroke="#3B82F6" stroke-width="0.8" rx="2" ry="2"/>
<rect x="122.00" y="182.00" width="18.00" height="18.00" fill="#BFDBFE" stroke="#3B82F6" stroke-width="0.8" rx="2" ry="2"/>
<rect x="143.00" y="182.00" width="18.00" height="18.00" fill="#BFDBFE" stroke="#3B82F6" stroke-width="0.8" rx="2" ry="2"/>
<rect x="164.00" y="182.00" width="18.00" height="18.00" fill="#BFDBFE" stroke="#3B82F6" stroke-width="0.8" rx="2" ry="2"/>
<rect x="185.00" y="182.00" width="18.00" height="18.00" fill="#BFDBFE" stroke="#3B82F6" stroke-width="0.8" rx="2" ry="2"/>
<rect x="206.00" y="182.00" width="18.00" height="18.00" fill="#BFDBFE" stroke="#3B82F6" stroke-width="0.8" rx="2" ry="2"/>
<rect x="227.00" y="182.00" width="18.00" height="18.00" fill="#BFDBFE" stroke="#3B82F6" stroke-width="0.8" rx="2" ry="2"/>
<rect x="80.00" y="203.00" width="18.00" height="18.00" fill="#BFDBFE" stroke="#3B82F6" stroke-width="0.8" rx="2" ry="2"/>
<rect x="101.00" y="203.00" width="18.00" height="18.00" fill="#BFDBFE" stroke="#3B82F6" stroke-width="0.8" rx="2" ry="2"/>
<rect x="122.00" y="203.00" width="18.00" height="18.00" fill="#BFDBFE" stroke="#3B82F6" stroke-width="0.8" rx="2" ry="2"/>
<rect x="143.00" y="203.00" width="18.00" height="18.00" fill="#BFDBFE" stroke="#3B82F6" stroke-width="0.8" rx="2" ry="2"/>
<rect x="164.00" y="203.00" width="18.00" height="18.00" fill="#BFDBFE" stroke="#3B82F6" stroke-width="0.8" rx="2" ry="2"/>
<rect x="185.00" y="203.00" width="18.00" height="18.00" fill="#BFDBFE" stroke="#3B82F6" stroke-width="0.8" rx="2" ry="2"/>
<rect x="206.00" y="203.00" width="18.00" height="18.00" fill="#BFDBFE" stroke="#3B82F6" stroke-width="0.8" rx="2" ry="2"/>
<rect x="227.00" y="203.00" width="18.00" height="18.00" fill="#BFDBFE" stroke="#3B82F6" stroke-width="0.8" rx="2" ry="2"/>
<rect x="80.00" y="224.00" width="18.00" height="18.00" fill="#BFDBFE" stroke="#3B82F6" stroke-width="0.8" rx="2" ry="2"/>
<rect x="101.00" y="224.00" width="18.00" height="18.00" fill="#BFDBFE" stroke="#3B82F6" stroke-width="0.8" rx="2" ry="2"/>
<rect x="122.00" y="224.00" width="18.00" height="18.00" fill="#BFDBFE" stroke="#3B82F6" stroke-width="0.8" rx="2" ry="2"/>
<rect x="143.00" y="224.00" width="18.00" height="18.00" fill="#BFDBFE" stroke="#3B82F6" stroke-width="0.8" rx="2" ry="2"/>
<rect x="164.00" y="224.00" width="18.00" height="18.00" fill="#BFDBFE" stroke="#3B82F6" stroke-width="0.8" rx="2" ry="2"/>
<rect x="185.00" y="224.00" width="18.00" height="18.00" fill="#BFDBFE" stroke="#3B82F6" stroke-width="0.8" rx="2" ry="2"/>
<rect x="206.00" y="224.00" width="18.00" height="18.00" fill="#BFDBFE" stroke="#3B82F6" stroke-width="0.8" rx="2" ry="2"/>
<rect x="227.00" y="224.00" width="18.00" height="18.00" fill="#BFDBFE" stroke="#3B82F6" stroke-width="0.8" rx="2" ry="2"/>
<rect x="80.00" y="245.00" width="18.00" height="18.00" fill="#BFDBFE" stroke="#3B82F6" stroke-width="0.8" rx="2" ry="2"/>
<rect x="101.00" y="245.00" width="18.00" height="18.00" fill="#BFDBFE" stroke="#3B82F6" stroke-width="0.8" rx="2" ry="2"/>
<rect x="122.00" y="245.00" width="18.00" height="18.00" fill="#BFDBFE" stroke="#3B82F6" stroke-width="0.8" rx="2" ry="2"/>
<rect x="143.00" y="245.00" width="18.00" height="18.00" fill="#BFDBFE" stroke="#3B82F6" stroke-width="0.8" rx="2" ry="2"/>
<rect x="164.00" y="245.00" width="18.00" height="18.00" fill="#BFDBFE" stroke="#3B82F6" stroke-width="0.8" rx="2" ry="2"/>
<rect x="185.00" y="245.00" width="18.00" height="18.00" fill="#BFDBFE" stroke="#3B82F6" stroke-width="0.8" rx="2" ry="2"/>
<rect x="206.00" y="245.00" width="18.00" height="18.00" fill="#BFDBFE" stroke="#3B82F6" stroke-width="0.8" rx="2" ry="2"/>
<rect x="227.00" y="245.00" width="18.00" height="18.00" fill="#BFDBFE" stroke="#3B82F6" stroke-width="0.8" rx="2" ry="2"/>
<text x="164.00" y="88.00" fill="#3B82F6" font-size="14" font-family="PingFang SC, Hiragino Sans GB, Helvetica Neue, sans-serif" font-weight="600" text-anchor="middle" dy="0">A</text>
<rect x="310.00" y="98.00" width="18.00" height="18.00" fill="#FDE68A" stroke="#F59E0B" stroke-width="0.8" rx="2" ry="2"/>
<rect x="331.00" y="98.00" width="18.00" height="18.00" fill="#FDE68A" stroke="#F59E0B" stroke-width="0.8" rx="2" ry="2"/>
<rect x="352.00" y="98.00" width="18.00" height="18.00" fill="#FDE68A" stroke="#F59E0B" stroke-width="0.8" rx="2" ry="2"/>
<rect x="373.00" y="98.00" width="18.00" height="18.00" fill="#FDE68A" stroke="#F59E0B" stroke-width="0.8" rx="2" ry="2"/>
<rect x="394.00" y="98.00" width="18.00" height="18.00" fill="#FDE68A" stroke="#F59E0B" stroke-width="0.8" rx="2" ry="2"/>
<rect x="415.00" y="98.00" width="18.00" height="18.00" fill="#F59E0B" stroke="#F59E0B" stroke-width="0.8" rx="2" ry="2"/>
<rect x="436.00" y="98.00" width="18.00" height="18.00" fill="#FDE68A" stroke="#F59E0B" stroke-width="0.8" rx="2" ry="2"/>
<rect x="457.00" y="98.00" width="18.00" height="18.00" fill="#FDE68A" stroke="#F59E0B" stroke-width="0.8" rx="2" ry="2"/>
<rect x="310.00" y="119.00" width="18.00" height="18.00" fill="#FDE68A" stroke="#F59E0B" stroke-width="0.8" rx="2" ry="2"/>
<rect x="331.00" y="119.00" width="18.00" height="18.00" fill="#FDE68A" stroke="#F59E0B" stroke-width="0.8" rx="2" ry="2"/>
<rect x="352.00" y="119.00" width="18.00" height="18.00" fill="#FDE68A" stroke="#F59E0B" stroke-width="0.8" rx="2" ry="2"/>
<rect x="373.00" y="119.00" width="18.00" height="18.00" fill="#FDE68A" stroke="#F59E0B" stroke-width="0.8" rx="2" ry="2"/>
<rect x="394.00" y="119.00" width="18.00" height="18.00" fill="#FDE68A" stroke="#F59E0B" stroke-width="0.8" rx="2" ry="2"/>
<rect x="415.00" y="119.00" width="18.00" height="18.00" fill="#F59E0B" stroke="#F59E0B" stroke-width="0.8" rx="2" ry="2"/>
<rect x="436.00" y="119.00" width="18.00" height="18.00" fill="#FDE68A" stroke="#F59E0B" stroke-width="0.8" rx="2" ry="2"/>
<rect x="457.00" y="119.00" width="18.00" height="18.00" fill="#FDE68A" stroke="#F59E0B" stroke-width="0.8" rx="2" ry="2"/>
<rect x="310.00" y="140.00" width="18.00" height="18.00" fill="#FDE68A" stroke="#F59E0B" stroke-width="0.8" rx="2" ry="2"/>
<rect x="331.00" y="140.00" width="18.00" height="18.00" fill="#FDE68A" stroke="#F59E0B" stroke-width="0.8" rx="2" ry="2"/>
<rect x="352.00" y="140.00" width="18.00" height="18.00" fill="#FDE68A" stroke="#F59E0B" stroke-width="0.8" rx="2" ry="2"/>
<rect x="373.00" y="140.00" width="18.00" height="18.00" fill="#FDE68A" stroke="#F59E0B" stroke-width="0.8" rx="2" ry="2"/>
<rect x="394.00" y="140.00" width="18.00" height="18.00" fill="#FDE68A" stroke="#F59E0B" stroke-width="0.8" rx="2" ry="2"/>
<rect x="415.00" y="140.00" width="18.00" height="18.00" fill="#F59E0B" stroke="#F59E0B" stroke-width="0.8" rx="2" ry="2"/>
<rect x="436.00" y="140.00" width="18.00" height="18.00" fill="#FDE68A" stroke="#F59E0B" stroke-width="0.8" rx="2" ry="2"/>
<rect x="457.00" y="140.00" width="18.00" height="18.00" fill="#FDE68A" stroke="#F59E0B" stroke-width="0.8" rx="2" ry="2"/>
<rect x="310.00" y="161.00" width="18.00" height="18.00" fill="#FDE68A" stroke="#F59E0B" stroke-width="0.8" rx="2" ry="2"/>
<rect x="331.00" y="161.00" width="18.00" height="18.00" fill="#FDE68A" stroke="#F59E0B" stroke-width="0.8" rx="2" ry="2"/>
<rect x="352.00" y="161.00" width="18.00" height="18.00" fill="#FDE68A" stroke="#F59E0B" stroke-width="0.8" rx="2" ry="2"/>
<rect x="373.00" y="161.00" width="18.00" height="18.00" fill="#FDE68A" stroke="#F59E0B" stroke-width="0.8" rx="2" ry="2"/>
<rect x="394.00" y="161.00" width="18.00" height="18.00" fill="#FDE68A" stroke="#F59E0B" stroke-width="0.8" rx="2" ry="2"/>
<rect x="415.00" y="161.00" width="18.00" height="18.00" fill="#F59E0B" stroke="#F59E0B" stroke-width="0.8" rx="2" ry="2"/>
<rect x="436.00" y="161.00" width="18.00" height="18.00" fill="#FDE68A" stroke="#F59E0B" stroke-width="0.8" rx="2" ry="2"/>
<rect x="457.00" y="161.00" width="18.00" height="18.00" fill="#FDE68A" stroke="#F59E0B" stroke-width="0.8" rx="2" ry="2"/>
<rect x="310.00" y="182.00" width="18.00" height="18.00" fill="#FDE68A" stroke="#F59E0B" stroke-width="0.8" rx="2" ry="2"/>
<rect x="331.00" y="182.00" width="18.00" height="18.00" fill="#FDE68A" stroke="#F59E0B" stroke-width="0.8" rx="2" ry="2"/>
<rect x="352.00" y="182.00" width="18.00" height="18.00" fill="#FDE68A" stroke="#F59E0B" stroke-width="0.8" rx="2" ry="2"/>
<rect x="373.00" y="182.00" width="18.00" height="18.00" fill="#FDE68A" stroke="#F59E0B" stroke-width="0.8" rx="2" ry="2"/>
<rect x="394.00" y="182.00" width="18.00" height="18.00" fill="#FDE68A" stroke="#F59E0B" stroke-width="0.8" rx="2" ry="2"/>
<rect x="415.00" y="182.00" width="18.00" height="18.00" fill="#F59E0B" stroke="#F59E0B" stroke-width="0.8" rx="2" ry="2"/>
<rect x="436.00" y="182.00" width="18.00" height="18.00" fill="#FDE68A" stroke="#F59E0B" stroke-width="0.8" rx="2" ry="2"/>
<rect x="457.00" y="182.00" width="18.00" height="18.00" fill="#FDE68A" stroke="#F59E0B" stroke-width="0.8" rx="2" ry="2"/>
<rect x="310.00" y="203.00" width="18.00" height="18.00" fill="#FDE68A" stroke="#F59E0B" stroke-width="0.8" rx="2" ry="2"/>
<rect x="331.00" y="203.00" width="18.00" height="18.00" fill="#FDE68A" stroke="#F59E0B" stroke-width="0.8" rx="2" ry="2"/>
<rect x="352.00" y="203.00" width="18.00" height="18.00" fill="#FDE68A" stroke="#F59E0B" stroke-width="0.8" rx="2" ry="2"/>
<rect x="373.00" y="203.00" width="18.00" height="18.00" fill="#FDE68A" stroke="#F59E0B" stroke-width="0.8" rx="2" ry="2"/>
<rect x="394.00" y="203.00" width="18.00" height="18.00" fill="#FDE68A" stroke="#F59E0B" stroke-width="0.8" rx="2" ry="2"/>
<rect x="415.00" y="203.00" width="18.00" height="18.00" fill="#F59E0B" stroke="#F59E0B" stroke-width="0.8" rx="2" ry="2"/>
<rect x="436.00" y="203.00" width="18.00" height="18.00" fill="#FDE68A" stroke="#F59E0B" stroke-width="0.8" rx="2" ry="2"/>
<rect x="457.00" y="203.00" width="18.00" height="18.00" fill="#FDE68A" stroke="#F59E0B" stroke-width="0.8" rx="2" ry="2"/>
<rect x="310.00" y="224.00" width="18.00" height="18.00" fill="#FDE68A" stroke="#F59E0B" stroke-width="0.8" rx="2" ry="2"/>
<rect x="331.00" y="224.00" width="18.00" height="18.00" fill="#FDE68A" stroke="#F59E0B" stroke-width="0.8" rx="2" ry="2"/>
<rect x="352.00" y="224.00" width="18.00" height="18.00" fill="#FDE68A" stroke="#F59E0B" stroke-width="0.8" rx="2" ry="2"/>
<rect x="373.00" y="224.00" width="18.00" height="18.00" fill="#FDE68A" stroke="#F59E0B" stroke-width="0.8" rx="2" ry="2"/>
<rect x="394.00" y="224.00" width="18.00" height="18.00" fill="#FDE68A" stroke="#F59E0B" stroke-width="0.8" rx="2" ry="2"/>
<rect x="415.00" y="224.00" width="18.00" height="18.00" fill="#F59E0B" stroke="#F59E0B" stroke-width="0.8" rx="2" ry="2"/>
<rect x="436.00" y="224.00" width="18.00" height="18.00" fill="#FDE68A" stroke="#F59E0B" stroke-width="0.8" rx="2" ry="2"/>
<rect x="457.00" y="224.00" width="18.00" height="18.00" fill="#FDE68A" stroke="#F59E0B" stroke-width="0.8" rx="2" ry="2"/>
<rect x="310.00" y="245.00" width="18.00" height="18.00" fill="#FDE68A" stroke="#F59E0B" stroke-width="0.8" rx="2" ry="2"/>
<rect x="331.00" y="245.00" width="18.00" height="18.00" fill="#FDE68A" stroke="#F59E0B" stroke-width="0.8" rx="2" ry="2"/>
<rect x="352.00" y="245.00" width="18.00" height="18.00" fill="#FDE68A" stroke="#F59E0B" stroke-width="0.8" rx="2" ry="2"/>
<rect x="373.00" y="245.00" width="18.00" height="18.00" fill="#FDE68A" stroke="#F59E0B" stroke-width="0.8" rx="2" ry="2"/>
<rect x="394.00" y="245.00" width="18.00" height="18.00" fill="#FDE68A" stroke="#F59E0B" stroke-width="0.8" rx="2" ry="2"/>
<rect x="415.00" y="245.00" width="18.00" height="18.00" fill="#F59E0B" stroke="#F59E0B" stroke-width="0.8" rx="2" ry="2"/>
<rect x="436.00" y="245.00" width="18.00" height="18.00" fill="#FDE68A" stroke="#F59E0B" stroke-width="0.8" rx="2" ry="2"/>
<rect x="457.00" y="245.00" width="18.00" height="18.00" fill="#FDE68A" stroke="#F59E0B" stroke-width="0.8" rx="2" ry="2"/>
<line x1="424.00" y1="114.00" x2="424.00" y2="123.00" stroke="#EF4444" stroke-width="1.6" stroke-linecap="round" marker-end="url(#arr-EF4444)"/>
<line x1="424.00" y1="135.00" x2="424.00" y2="144.00" stroke="#EF4444" stroke-width="1.6" stroke-linecap="round" marker-end="url(#arr-EF4444)"/>
<line x1="424.00" y1="156.00" x2="424.00" y2="165.00" stroke="#EF4444" stroke-width="1.6" stroke-linecap="round" marker-end="url(#arr-EF4444)"/>
<line x1="424.00" y1="177.00" x2="424.00" y2="186.00" stroke="#EF4444" stroke-width="1.6" stroke-linecap="round" marker-end="url(#arr-EF4444)"/>
<line x1="424.00" y1="198.00" x2="424.00" y2="207.00" stroke="#EF4444" stroke-width="1.6" stroke-linecap="round" marker-end="url(#arr-EF4444)"/>
<line x1="424.00" y1="219.00" x2="424.00" y2="228.00" stroke="#EF4444" stroke-width="1.6" stroke-linecap="round" marker-end="url(#arr-EF4444)"/>
<text x="394.00" y="290.00" fill="#EF4444" font-size="13" font-family="PingFang SC, Hiragino Sans GB, Helvetica Neue, sans-serif" font-weight="500" text-anchor="middle" dy="0">B 按列跳  ·  跨行</text>
<text x="394.00" y="88.00" fill="#F59E0B" font-size="14" font-family="PingFang SC, Hiragino Sans GB, Helvetica Neue, sans-serif" font-weight="600" text-anchor="middle" dy="0">B</text>
<rect x="540.00" y="98.00" width="18.00" height="18.00" fill="#A7F3D0" stroke="#10B981" stroke-width="0.8" rx="2" ry="2"/>
<rect x="561.00" y="98.00" width="18.00" height="18.00" fill="#A7F3D0" stroke="#10B981" stroke-width="0.8" rx="2" ry="2"/>
<rect x="582.00" y="98.00" width="18.00" height="18.00" fill="#A7F3D0" stroke="#10B981" stroke-width="0.8" rx="2" ry="2"/>
<rect x="603.00" y="98.00" width="18.00" height="18.00" fill="#A7F3D0" stroke="#10B981" stroke-width="0.8" rx="2" ry="2"/>
<rect x="624.00" y="98.00" width="18.00" height="18.00" fill="#A7F3D0" stroke="#10B981" stroke-width="0.8" rx="2" ry="2"/>
<rect x="645.00" y="98.00" width="18.00" height="18.00" fill="#A7F3D0" stroke="#10B981" stroke-width="0.8" rx="2" ry="2"/>
<rect x="666.00" y="98.00" width="18.00" height="18.00" fill="#A7F3D0" stroke="#10B981" stroke-width="0.8" rx="2" ry="2"/>
<rect x="687.00" y="98.00" width="18.00" height="18.00" fill="#A7F3D0" stroke="#10B981" stroke-width="0.8" rx="2" ry="2"/>
<rect x="540.00" y="119.00" width="18.00" height="18.00" fill="#A7F3D0" stroke="#10B981" stroke-width="0.8" rx="2" ry="2"/>
<rect x="561.00" y="119.00" width="18.00" height="18.00" fill="#A7F3D0" stroke="#10B981" stroke-width="0.8" rx="2" ry="2"/>
<rect x="582.00" y="119.00" width="18.00" height="18.00" fill="#A7F3D0" stroke="#10B981" stroke-width="0.8" rx="2" ry="2"/>
<rect x="603.00" y="119.00" width="18.00" height="18.00" fill="#A7F3D0" stroke="#10B981" stroke-width="0.8" rx="2" ry="2"/>
<rect x="624.00" y="119.00" width="18.00" height="18.00" fill="#A7F3D0" stroke="#10B981" stroke-width="0.8" rx="2" ry="2"/>
<rect x="645.00" y="119.00" width="18.00" height="18.00" fill="#A7F3D0" stroke="#10B981" stroke-width="0.8" rx="2" ry="2"/>
<rect x="666.00" y="119.00" width="18.00" height="18.00" fill="#A7F3D0" stroke="#10B981" stroke-width="0.8" rx="2" ry="2"/>
<rect x="687.00" y="119.00" width="18.00" height="18.00" fill="#A7F3D0" stroke="#10B981" stroke-width="0.8" rx="2" ry="2"/>
<rect x="540.00" y="140.00" width="18.00" height="18.00" fill="#A7F3D0" stroke="#10B981" stroke-width="0.8" rx="2" ry="2"/>
<rect x="561.00" y="140.00" width="18.00" height="18.00" fill="#A7F3D0" stroke="#10B981" stroke-width="0.8" rx="2" ry="2"/>
<rect x="582.00" y="140.00" width="18.00" height="18.00" fill="#A7F3D0" stroke="#10B981" stroke-width="0.8" rx="2" ry="2"/>
<rect x="603.00" y="140.00" width="18.00" height="18.00" fill="#A7F3D0" stroke="#10B981" stroke-width="0.8" rx="2" ry="2"/>
<rect x="624.00" y="140.00" width="18.00" height="18.00" fill="#A7F3D0" stroke="#10B981" stroke-width="0.8" rx="2" ry="2"/>
<rect x="645.00" y="140.00" width="18.00" height="18.00" fill="#10B981" stroke="#10B981" stroke-width="0.8" rx="2" ry="2"/>
<rect x="666.00" y="140.00" width="18.00" height="18.00" fill="#A7F3D0" stroke="#10B981" stroke-width="0.8" rx="2" ry="2"/>
<rect x="687.00" y="140.00" width="18.00" height="18.00" fill="#A7F3D0" stroke="#10B981" stroke-width="0.8" rx="2" ry="2"/>
<rect x="540.00" y="161.00" width="18.00" height="18.00" fill="#A7F3D0" stroke="#10B981" stroke-width="0.8" rx="2" ry="2"/>
<rect x="561.00" y="161.00" width="18.00" height="18.00" fill="#A7F3D0" stroke="#10B981" stroke-width="0.8" rx="2" ry="2"/>
<rect x="582.00" y="161.00" width="18.00" height="18.00" fill="#A7F3D0" stroke="#10B981" stroke-width="0.8" rx="2" ry="2"/>
<rect x="603.00" y="161.00" width="18.00" height="18.00" fill="#A7F3D0" stroke="#10B981" stroke-width="0.8" rx="2" ry="2"/>
<rect x="624.00" y="161.00" width="18.00" height="18.00" fill="#A7F3D0" stroke="#10B981" stroke-width="0.8" rx="2" ry="2"/>
<rect x="645.00" y="161.00" width="18.00" height="18.00" fill="#A7F3D0" stroke="#10B981" stroke-width="0.8" rx="2" ry="2"/>
<rect x="666.00" y="161.00" width="18.00" height="18.00" fill="#A7F3D0" stroke="#10B981" stroke-width="0.8" rx="2" ry="2"/>
<rect x="687.00" y="161.00" width="18.00" height="18.00" fill="#A7F3D0" stroke="#10B981" stroke-width="0.8" rx="2" ry="2"/>
<rect x="540.00" y="182.00" width="18.00" height="18.00" fill="#A7F3D0" stroke="#10B981" stroke-width="0.8" rx="2" ry="2"/>
<rect x="561.00" y="182.00" width="18.00" height="18.00" fill="#A7F3D0" stroke="#10B981" stroke-width="0.8" rx="2" ry="2"/>
<rect x="582.00" y="182.00" width="18.00" height="18.00" fill="#A7F3D0" stroke="#10B981" stroke-width="0.8" rx="2" ry="2"/>
<rect x="603.00" y="182.00" width="18.00" height="18.00" fill="#A7F3D0" stroke="#10B981" stroke-width="0.8" rx="2" ry="2"/>
<rect x="624.00" y="182.00" width="18.00" height="18.00" fill="#A7F3D0" stroke="#10B981" stroke-width="0.8" rx="2" ry="2"/>
<rect x="645.00" y="182.00" width="18.00" height="18.00" fill="#A7F3D0" stroke="#10B981" stroke-width="0.8" rx="2" ry="2"/>
<rect x="666.00" y="182.00" width="18.00" height="18.00" fill="#A7F3D0" stroke="#10B981" stroke-width="0.8" rx="2" ry="2"/>
<rect x="687.00" y="182.00" width="18.00" height="18.00" fill="#A7F3D0" stroke="#10B981" stroke-width="0.8" rx="2" ry="2"/>
<rect x="540.00" y="203.00" width="18.00" height="18.00" fill="#A7F3D0" stroke="#10B981" stroke-width="0.8" rx="2" ry="2"/>
<rect x="561.00" y="203.00" width="18.00" height="18.00" fill="#A7F3D0" stroke="#10B981" stroke-width="0.8" rx="2" ry="2"/>
<rect x="582.00" y="203.00" width="18.00" height="18.00" fill="#A7F3D0" stroke="#10B981" stroke-width="0.8" rx="2" ry="2"/>
<rect x="603.00" y="203.00" width="18.00" height="18.00" fill="#A7F3D0" stroke="#10B981" stroke-width="0.8" rx="2" ry="2"/>
<rect x="624.00" y="203.00" width="18.00" height="18.00" fill="#A7F3D0" stroke="#10B981" stroke-width="0.8" rx="2" ry="2"/>
<rect x="645.00" y="203.00" width="18.00" height="18.00" fill="#A7F3D0" stroke="#10B981" stroke-width="0.8" rx="2" ry="2"/>
<rect x="666.00" y="203.00" width="18.00" height="18.00" fill="#A7F3D0" stroke="#10B981" stroke-width="0.8" rx="2" ry="2"/>
<rect x="687.00" y="203.00" width="18.00" height="18.00" fill="#A7F3D0" stroke="#10B981" stroke-width="0.8" rx="2" ry="2"/>
<rect x="540.00" y="224.00" width="18.00" height="18.00" fill="#A7F3D0" stroke="#10B981" stroke-width="0.8" rx="2" ry="2"/>
<rect x="561.00" y="224.00" width="18.00" height="18.00" fill="#A7F3D0" stroke="#10B981" stroke-width="0.8" rx="2" ry="2"/>
<rect x="582.00" y="224.00" width="18.00" height="18.00" fill="#A7F3D0" stroke="#10B981" stroke-width="0.8" rx="2" ry="2"/>
<rect x="603.00" y="224.00" width="18.00" height="18.00" fill="#A7F3D0" stroke="#10B981" stroke-width="0.8" rx="2" ry="2"/>
<rect x="624.00" y="224.00" width="18.00" height="18.00" fill="#A7F3D0" stroke="#10B981" stroke-width="0.8" rx="2" ry="2"/>
<rect x="645.00" y="224.00" width="18.00" height="18.00" fill="#A7F3D0" stroke="#10B981" stroke-width="0.8" rx="2" ry="2"/>
<rect x="666.00" y="224.00" width="18.00" height="18.00" fill="#A7F3D0" stroke="#10B981" stroke-width="0.8" rx="2" ry="2"/>
<rect x="687.00" y="224.00" width="18.00" height="18.00" fill="#A7F3D0" stroke="#10B981" stroke-width="0.8" rx="2" ry="2"/>
<rect x="540.00" y="245.00" width="18.00" height="18.00" fill="#A7F3D0" stroke="#10B981" stroke-width="0.8" rx="2" ry="2"/>
<rect x="561.00" y="245.00" width="18.00" height="18.00" fill="#A7F3D0" stroke="#10B981" stroke-width="0.8" rx="2" ry="2"/>
<rect x="582.00" y="245.00" width="18.00" height="18.00" fill="#A7F3D0" stroke="#10B981" stroke-width="0.8" rx="2" ry="2"/>
<rect x="603.00" y="245.00" width="18.00" height="18.00" fill="#A7F3D0" stroke="#10B981" stroke-width="0.8" rx="2" ry="2"/>
<rect x="624.00" y="245.00" width="18.00" height="18.00" fill="#A7F3D0" stroke="#10B981" stroke-width="0.8" rx="2" ry="2"/>
<rect x="645.00" y="245.00" width="18.00" height="18.00" fill="#A7F3D0" stroke="#10B981" stroke-width="0.8" rx="2" ry="2"/>
<rect x="666.00" y="245.00" width="18.00" height="18.00" fill="#A7F3D0" stroke="#10B981" stroke-width="0.8" rx="2" ry="2"/>
<rect x="687.00" y="245.00" width="18.00" height="18.00" fill="#A7F3D0" stroke="#10B981" stroke-width="0.8" rx="2" ry="2"/>
<text x="624.00" y="290.00" fill="#6B7280" font-size="13" font-family="PingFang SC, Hiragino Sans GB, Helvetica Neue, sans-serif" font-weight="500" text-anchor="middle" dy="0">C 只写一个格子</text>
<text x="624.00" y="88.00" fill="#10B981" font-size="14" font-family="PingFang SC, Hiragino Sans GB, Helvetica Neue, sans-serif" font-weight="600" text-anchor="middle" dy="0">C</text>
<text x="550.00" y="390.00" fill="#6B7280" font-size="14" font-family="PingFang SC, Hiragino Sans GB, Helvetica Neue, sans-serif" font-weight="500" text-anchor="middle" dy="0">行主序里，B[k,j] 的下一拍是 B[k+1,j] —— 中间隔了整行，L1 几乎帮不上忙。</text>
</svg>
